<svg width="124" height="206" viewBox="0 0 124 206" fill="none" xmlns="http://www.w3.org/2000/svg">
<g opacity="0.6">
<circle cx="122.312" cy="1.68708" r="1.68707" transform="rotate(90 122.312 1.68708)" fill="#2945FF"/>
<circle cx="122.312" cy="109.66" r="1.68707" transform="rotate(90 122.312 109.66)" fill="#2945FF"/>
<circle cx="68.3261" cy="1.68708" r="1.68707" transform="rotate(90 68.3261 1.68708)" fill="#2945FF"/>
<circle cx="68.3261" cy="109.66" r="1.68707" transform="rotate(90 68.3261 109.66)" fill="#2945FF"/>
<circle cx="95.3191" cy="1.68708" r="1.68707" transform="rotate(90 95.3191 1.68708)" fill="#2945FF"/>
<circle cx="95.3191" cy="109.66" r="1.68707" transform="rotate(90 95.3191 109.66)" fill="#2945FF"/>
<circle cx="41.3331" cy="1.68708" r="1.68707" transform="rotate(90 41.3331 1.68708)" fill="#2945FF"/>
<circle cx="41.3331" cy="109.66" r="1.68707" transform="rotate(90 41.3331 109.66)" fill="#2945FF"/>
<circle cx="108.816" cy="1.68708" r="1.68707" transform="rotate(90 108.816 1.68708)" fill="#2945FF"/>
<circle cx="108.816" cy="109.66" r="1.68707" transform="rotate(90 108.816 109.66)" fill="#2945FF"/>
<circle cx="54.8296" cy="1.68708" r="1.68707" transform="rotate(90 54.8296 1.68708)" fill="#2945FF"/>
<circle cx="54.8296" cy="109.66" r="1.68707" transform="rotate(90 54.8296 109.66)" fill="#2945FF"/>
<circle cx="81.8225" cy="1.68708" r="1.68707" transform="rotate(90 81.8225 1.68708)" fill="#2945FF"/>
<circle cx="81.8225" cy="109.66" r="1.68707" transform="rotate(90 81.8225 109.66)" fill="#2945FF"/>
<circle cx="27.8367" cy="1.68708" r="1.68707" transform="rotate(90 27.8367 1.68708)" fill="#2945FF"/>
<circle cx="27.8367" cy="109.66" r="1.68707" transform="rotate(90 27.8367 109.66)" fill="#2945FF"/>
<circle cx="122.312" cy="15.1837" r="1.68707" transform="rotate(90 122.312 15.1837)" fill="#2945FF"/>
<circle cx="122.312" cy="123.156" r="1.68707" transform="rotate(90 122.312 123.156)" fill="#2945FF"/>
<circle cx="68.3261" cy="15.1837" r="1.68707" transform="rotate(90 68.3261 15.1837)" fill="#2945FF"/>
<circle cx="68.3261" cy="123.156" r="1.68707" transform="rotate(90 68.3261 123.156)" fill="#2945FF"/>
<circle cx="95.3191" cy="15.1837" r="1.68707" transform="rotate(90 95.3191 15.1837)" fill="#2945FF"/>
<circle cx="95.3191" cy="123.156" r="1.68707" transform="rotate(90 95.3191 123.156)" fill="#2945FF"/>
<circle cx="41.3331" cy="15.1837" r="1.68707" transform="rotate(90 41.3331 15.1837)" fill="#2945FF"/>
<circle cx="41.3331" cy="123.156" r="1.68707" transform="rotate(90 41.3331 123.156)" fill="#2945FF"/>
<circle cx="108.816" cy="15.1837" r="1.68707" transform="rotate(90 108.816 15.1837)" fill="#2945FF"/>
<circle cx="108.816" cy="123.156" r="1.68707" transform="rotate(90 108.816 123.156)" fill="#2945FF"/>
<circle cx="54.8296" cy="15.1837" r="1.68707" transform="rotate(90 54.8296 15.1837)" fill="#2945FF"/>
<circle cx="54.8296" cy="123.156" r="1.68707" transform="rotate(90 54.8296 123.156)" fill="#2945FF"/>
<circle cx="81.8225" cy="15.1837" r="1.68707" transform="rotate(90 81.8225 15.1837)" fill="#2945FF"/>
<circle cx="81.8225" cy="123.156" r="1.68707" transform="rotate(90 81.8225 123.156)" fill="#2945FF"/>
<circle cx="27.8367" cy="15.1837" r="1.68707" transform="rotate(90 27.8367 15.1837)" fill="#2945FF"/>
<circle cx="27.8367" cy="123.156" r="1.68707" transform="rotate(90 27.8367 123.156)" fill="#2945FF"/>
<circle cx="122.312" cy="28.6802" r="1.68707" transform="rotate(90 122.312 28.6802)" fill="#2945FF"/>
<circle cx="122.312" cy="136.653" r="1.68707" transform="rotate(90 122.312 136.653)" fill="#2945FF"/>
<circle cx="68.3261" cy="28.6802" r="1.68707" transform="rotate(90 68.3261 28.6802)" fill="#2945FF"/>
<circle cx="68.3261" cy="136.653" r="1.68707" transform="rotate(90 68.3261 136.653)" fill="#2945FF"/>
<circle cx="95.3191" cy="28.6802" r="1.68707" transform="rotate(90 95.3191 28.6802)" fill="#2945FF"/>
<circle cx="95.3191" cy="136.653" r="1.68707" transform="rotate(90 95.3191 136.653)" fill="#2945FF"/>
<circle cx="41.3331" cy="28.6802" r="1.68707" transform="rotate(90 41.3331 28.6802)" fill="#2945FF"/>
<circle cx="41.3331" cy="136.653" r="1.68707" transform="rotate(90 41.3331 136.653)" fill="#2945FF"/>
<circle cx="108.816" cy="28.6802" r="1.68707" transform="rotate(90 108.816 28.6802)" fill="#2945FF"/>
<circle cx="108.816" cy="136.653" r="1.68707" transform="rotate(90 108.816 136.653)" fill="#2945FF"/>
<circle cx="54.8296" cy="28.6802" r="1.68707" transform="rotate(90 54.8296 28.6802)" fill="#2945FF"/>
<circle cx="54.8296" cy="136.653" r="1.68707" transform="rotate(90 54.8296 136.653)" fill="#2945FF"/>
<circle cx="81.8225" cy="28.6802" r="1.68707" transform="rotate(90 81.8225 28.6802)" fill="#2945FF"/>
<circle cx="81.8225" cy="136.653" r="1.68707" transform="rotate(90 81.8225 136.653)" fill="#2945FF"/>
<circle cx="27.8367" cy="28.6802" r="1.68707" transform="rotate(90 27.8367 28.6802)" fill="#2945FF"/>
<circle cx="27.8367" cy="136.653" r="1.68707" transform="rotate(90 27.8367 136.653)" fill="#2945FF"/>
<circle cx="122.312" cy="42.1767" r="1.68707" transform="rotate(90 122.312 42.1767)" fill="#2945FF"/>
<circle cx="122.312" cy="150.149" r="1.68707" transform="rotate(90 122.312 150.149)" fill="#2945FF"/>
<circle cx="68.3261" cy="42.1767" r="1.68707" transform="rotate(90 68.3261 42.1767)" fill="#2945FF"/>
<circle cx="68.3261" cy="150.149" r="1.68707" transform="rotate(90 68.3261 150.149)" fill="#2945FF"/>
<circle cx="95.3191" cy="42.1767" r="1.68707" transform="rotate(90 95.3191 42.1767)" fill="#2945FF"/>
<circle cx="95.3191" cy="150.149" r="1.68707" transform="rotate(90 95.3191 150.149)" fill="#2945FF"/>
<circle cx="41.3331" cy="42.1767" r="1.68707" transform="rotate(90 41.3331 42.1767)" fill="#2945FF"/>
<circle cx="41.3331" cy="150.149" r="1.68707" transform="rotate(90 41.3331 150.149)" fill="#2945FF"/>
<circle cx="108.816" cy="42.1767" r="1.68707" transform="rotate(90 108.816 42.1767)" fill="#2945FF"/>
<circle cx="108.816" cy="150.149" r="1.68707" transform="rotate(90 108.816 150.149)" fill="#2945FF"/>
<circle cx="54.8296" cy="42.1767" r="1.68707" transform="rotate(90 54.8296 42.1767)" fill="#2945FF"/>
<circle cx="54.8296" cy="150.149" r="1.68707" transform="rotate(90 54.8296 150.149)" fill="#2945FF"/>
<circle cx="81.8225" cy="42.1767" r="1.68707" transform="rotate(90 81.8225 42.1767)" fill="#2945FF"/>
<circle cx="81.8225" cy="150.149" r="1.68707" transform="rotate(90 81.8225 150.149)" fill="#2945FF"/>
<circle cx="27.8367" cy="42.1767" r="1.68707" transform="rotate(90 27.8367 42.1767)" fill="#2945FF"/>
<circle cx="27.8367" cy="150.149" r="1.68707" transform="rotate(90 27.8367 150.149)" fill="#2945FF"/>
<circle cx="122.312" cy="55.6733" r="1.68707" transform="rotate(90 122.312 55.6733)" fill="#2945FF"/>
<circle cx="122.312" cy="163.646" r="1.68707" transform="rotate(90 122.312 163.646)" fill="#2945FF"/>
<circle cx="68.3261" cy="55.6733" r="1.68707" transform="rotate(90 68.3261 55.6733)" fill="#2945FF"/>
<circle cx="68.3261" cy="163.646" r="1.68707" transform="rotate(90 68.3261 163.646)" fill="#2945FF"/>
<circle cx="95.3191" cy="55.6733" r="1.68707" transform="rotate(90 95.3191 55.6733)" fill="#2945FF"/>
<circle cx="95.3191" cy="163.646" r="1.68707" transform="rotate(90 95.3191 163.646)" fill="#2945FF"/>
<circle cx="41.3331" cy="55.6733" r="1.68707" transform="rotate(90 41.3331 55.6733)" fill="#2945FF"/>
<circle cx="41.3331" cy="163.646" r="1.68707" transform="rotate(90 41.3331 163.646)" fill="#2945FF"/>
<circle cx="108.816" cy="55.6733" r="1.68707" transform="rotate(90 108.816 55.6733)" fill="#2945FF"/>
<circle cx="108.816" cy="163.646" r="1.68707" transform="rotate(90 108.816 163.646)" fill="#2945FF"/>
<circle cx="54.8296" cy="55.6733" r="1.68707" transform="rotate(90 54.8296 55.6733)" fill="#2945FF"/>
<circle cx="54.8296" cy="163.646" r="1.68707" transform="rotate(90 54.8296 163.646)" fill="#2945FF"/>
<circle cx="81.8225" cy="55.6733" r="1.68707" transform="rotate(90 81.8225 55.6733)" fill="#2945FF"/>
<circle cx="81.8225" cy="163.646" r="1.68707" transform="rotate(90 81.8225 163.646)" fill="#2945FF"/>
<circle cx="27.8367" cy="55.6733" r="1.68707" transform="rotate(90 27.8367 55.6733)" fill="#2945FF"/>
<circle cx="27.8367" cy="163.646" r="1.68707" transform="rotate(90 27.8367 163.646)" fill="#2945FF"/>
<circle cx="122.312" cy="69.1699" r="1.68707" transform="rotate(90 122.312 69.1699)" fill="#2945FF"/>
<circle cx="122.312" cy="177.142" r="1.68707" transform="rotate(90 122.312 177.142)" fill="#2945FF"/>
<circle cx="68.3261" cy="69.1699" r="1.68707" transform="rotate(90 68.3261 69.1699)" fill="#2945FF"/>
<circle cx="68.3261" cy="177.142" r="1.68707" transform="rotate(90 68.3261 177.142)" fill="#2945FF"/>
<circle cx="95.3191" cy="69.1699" r="1.68707" transform="rotate(90 95.3191 69.1699)" fill="#2945FF"/>
<circle cx="95.3191" cy="177.142" r="1.68707" transform="rotate(90 95.3191 177.142)" fill="#2945FF"/>
<circle cx="41.3331" cy="69.1699" r="1.68707" transform="rotate(90 41.3331 69.1699)" fill="#2945FF"/>
<circle cx="41.3331" cy="177.142" r="1.68707" transform="rotate(90 41.3331 177.142)" fill="#2945FF"/>
<circle cx="108.816" cy="69.1699" r="1.68707" transform="rotate(90 108.816 69.1699)" fill="#2945FF"/>
<circle cx="108.816" cy="177.142" r="1.68707" transform="rotate(90 108.816 177.142)" fill="#2945FF"/>
<circle cx="54.8296" cy="69.1699" r="1.68707" transform="rotate(90 54.8296 69.1699)" fill="#2945FF"/>
<circle cx="54.8296" cy="177.142" r="1.68707" transform="rotate(90 54.8296 177.142)" fill="#2945FF"/>
<circle cx="81.8225" cy="69.1699" r="1.68707" transform="rotate(90 81.8225 69.1699)" fill="#2945FF"/>
<circle cx="81.8225" cy="177.142" r="1.68707" transform="rotate(90 81.8225 177.142)" fill="#2945FF"/>
<circle cx="27.8367" cy="69.1699" r="1.68707" transform="rotate(90 27.8367 69.1699)" fill="#2945FF"/>
<circle cx="27.8367" cy="177.142" r="1.68707" transform="rotate(90 27.8367 177.142)" fill="#2945FF"/>
<circle cx="122.312" cy="82.6664" r="1.68707" transform="rotate(90 122.312 82.6664)" fill="#2945FF"/>
<circle cx="122.312" cy="190.639" r="1.68707" transform="rotate(90 122.312 190.639)" fill="#2945FF"/>
<circle cx="68.3261" cy="82.6664" r="1.68707" transform="rotate(90 68.3261 82.6664)" fill="#2945FF"/>
<circle cx="68.3261" cy="190.639" r="1.68707" transform="rotate(90 68.3261 190.639)" fill="#2945FF"/>
<circle cx="95.3191" cy="82.6664" r="1.68707" transform="rotate(90 95.3191 82.6664)" fill="#2945FF"/>
<circle cx="95.3191" cy="190.639" r="1.68707" transform="rotate(90 95.3191 190.639)" fill="#2945FF"/>
<circle cx="41.3331" cy="82.6664" r="1.68707" transform="rotate(90 41.3331 82.6664)" fill="#2945FF"/>
<circle cx="41.3331" cy="190.639" r="1.68707" transform="rotate(90 41.3331 190.639)" fill="#2945FF"/>
<circle cx="108.816" cy="82.6664" r="1.68707" transform="rotate(90 108.816 82.6664)" fill="#2945FF"/>
<circle cx="108.816" cy="190.639" r="1.68707" transform="rotate(90 108.816 190.639)" fill="#2945FF"/>
<circle cx="54.8296" cy="82.6664" r="1.68707" transform="rotate(90 54.8296 82.6664)" fill="#2945FF"/>
<circle cx="54.8296" cy="190.639" r="1.68707" transform="rotate(90 54.8296 190.639)" fill="#2945FF"/>
<circle cx="81.8225" cy="82.6664" r="1.68707" transform="rotate(90 81.8225 82.6664)" fill="#2945FF"/>
<circle cx="81.8225" cy="190.639" r="1.68707" transform="rotate(90 81.8225 190.639)" fill="#2945FF"/>
<circle cx="27.8367" cy="82.6664" r="1.68707" transform="rotate(90 27.8367 82.6664)" fill="#2945FF"/>
<circle cx="27.8367" cy="190.639" r="1.68707" transform="rotate(90 27.8367 190.639)" fill="#2945FF"/>
<circle cx="122.312" cy="96.163" r="1.68707" transform="rotate(90 122.312 96.163)" fill="#2945FF"/>
<circle cx="122.312" cy="204.135" r="1.68707" transform="rotate(90 122.312 204.135)" fill="#2945FF"/>
<circle cx="68.3261" cy="96.163" r="1.68707" transform="rotate(90 68.3261 96.163)" fill="#2945FF"/>
<circle cx="68.3261" cy="204.135" r="1.68707" transform="rotate(90 68.3261 204.135)" fill="#2945FF"/>
<circle cx="95.3191" cy="96.163" r="1.68707" transform="rotate(90 95.3191 96.163)" fill="#2945FF"/>
<circle cx="95.3191" cy="204.135" r="1.68707" transform="rotate(90 95.3191 204.135)" fill="#2945FF"/>
<circle cx="41.3331" cy="96.163" r="1.68707" transform="rotate(90 41.3331 96.163)" fill="#2945FF"/>
<circle cx="41.3331" cy="204.135" r="1.68707" transform="rotate(90 41.3331 204.135)" fill="#2945FF"/>
<circle cx="108.816" cy="96.163" r="1.68707" transform="rotate(90 108.816 96.163)" fill="#2945FF"/>
<circle cx="108.816" cy="204.135" r="1.68707" transform="rotate(90 108.816 204.135)" fill="#2945FF"/>
<circle cx="54.8296" cy="96.163" r="1.68707" transform="rotate(90 54.8296 96.163)" fill="#2945FF"/>
<circle cx="54.8296" cy="204.135" r="1.68707" transform="rotate(90 54.8296 204.135)" fill="#2945FF"/>
<circle cx="81.8225" cy="96.163" r="1.68707" transform="rotate(90 81.8225 96.163)" fill="#2945FF"/>
<circle cx="81.8225" cy="204.135" r="1.68707" transform="rotate(90 81.8225 204.135)" fill="#2945FF"/>
<circle cx="27.8367" cy="96.163" r="1.68707" transform="rotate(90 27.8367 96.163)" fill="#2945FF"/>
<circle cx="27.8367" cy="204.135" r="1.68707" transform="rotate(90 27.8367 204.135)" fill="#2945FF"/>
<circle cx="15.1836" cy="1.68708" r="1.68707" transform="rotate(90 15.1836 1.68708)" fill="#2945FF"/>
<circle cx="15.1836" cy="109.66" r="1.68707" transform="rotate(90 15.1836 109.66)" fill="#2945FF"/>
<circle cx="1.68715" cy="1.68708" r="1.68707" transform="rotate(90 1.68715 1.68708)" fill="#2945FF"/>
<circle cx="1.68715" cy="109.66" r="1.68707" transform="rotate(90 1.68715 109.66)" fill="#2945FF"/>
<circle cx="15.1836" cy="15.1837" r="1.68707" transform="rotate(90 15.1836 15.1837)" fill="#2945FF"/>
<circle cx="15.1836" cy="123.156" r="1.68707" transform="rotate(90 15.1836 123.156)" fill="#2945FF"/>
<circle cx="1.68715" cy="15.1837" r="1.68707" transform="rotate(90 1.68715 15.1837)" fill="#2945FF"/>
<circle cx="1.68715" cy="123.156" r="1.68707" transform="rotate(90 1.68715 123.156)" fill="#2945FF"/>
<circle cx="15.1836" cy="28.6802" r="1.68707" transform="rotate(90 15.1836 28.6802)" fill="#2945FF"/>
<circle cx="15.1836" cy="136.653" r="1.68707" transform="rotate(90 15.1836 136.653)" fill="#2945FF"/>
<circle cx="1.68715" cy="28.6802" r="1.68707" transform="rotate(90 1.68715 28.6802)" fill="#2945FF"/>
<circle cx="1.68715" cy="136.653" r="1.68707" transform="rotate(90 1.68715 136.653)" fill="#2945FF"/>
<circle cx="15.1836" cy="42.1767" r="1.68707" transform="rotate(90 15.1836 42.1767)" fill="#2945FF"/>
<circle cx="15.1836" cy="150.149" r="1.68707" transform="rotate(90 15.1836 150.149)" fill="#2945FF"/>
<circle cx="1.68715" cy="42.1767" r="1.68707" transform="rotate(90 1.68715 42.1767)" fill="#2945FF"/>
<circle cx="1.68715" cy="150.149" r="1.68707" transform="rotate(90 1.68715 150.149)" fill="#2945FF"/>
<circle cx="15.1836" cy="55.6733" r="1.68707" transform="rotate(90 15.1836 55.6733)" fill="#2945FF"/>
<circle cx="15.1836" cy="163.646" r="1.68707" transform="rotate(90 15.1836 163.646)" fill="#2945FF"/>
<circle cx="1.68715" cy="55.6733" r="1.68707" transform="rotate(90 1.68715 55.6733)" fill="#2945FF"/>
<circle cx="1.68715" cy="163.646" r="1.68707" transform="rotate(90 1.68715 163.646)" fill="#2945FF"/>
<circle cx="15.1836" cy="69.1699" r="1.68707" transform="rotate(90 15.1836 69.1699)" fill="#2945FF"/>
<circle cx="15.1836" cy="177.142" r="1.68707" transform="rotate(90 15.1836 177.142)" fill="#2945FF"/>
<circle cx="1.68715" cy="69.1699" r="1.68707" transform="rotate(90 1.68715 69.1699)" fill="#2945FF"/>
<circle cx="1.68715" cy="177.142" r="1.68707" transform="rotate(90 1.68715 177.142)" fill="#2945FF"/>
<circle cx="15.1836" cy="82.6664" r="1.68707" transform="rotate(90 15.1836 82.6664)" fill="#2945FF"/>
<circle cx="15.1836" cy="190.639" r="1.68707" transform="rotate(90 15.1836 190.639)" fill="#2945FF"/>
<circle cx="1.68715" cy="82.6664" r="1.68707" transform="rotate(90 1.68715 82.6664)" fill="#2945FF"/>
<circle cx="1.68715" cy="190.639" r="1.68707" transform="rotate(90 1.68715 190.639)" fill="#2945FF"/>
<circle cx="15.1836" cy="96.163" r="1.68707" transform="rotate(90 15.1836 96.163)" fill="#2945FF"/>
<circle cx="15.1836" cy="204.135" r="1.68707" transform="rotate(90 15.1836 204.135)" fill="#2945FF"/>
<circle cx="1.68715" cy="96.163" r="1.68707" transform="rotate(90 1.68715 96.163)" fill="#2945FF"/>
<circle cx="1.68715" cy="204.135" r="1.68707" transform="rotate(90 1.68715 204.135)" fill="#2945FF"/>
</g>
</svg>
